<?xml version="1.0" encoding="UTF-8" standalone="no"?>
<!-- Created with Inkscape (http://www.inkscape.org/) -->

<svg
   xmlns:dc="http://purl.org/dc/elements/1.1/"
   xmlns:cc="http://creativecommons.org/ns#"
   xmlns:rdf="http://www.w3.org/1999/02/22-rdf-syntax-ns#"
   xmlns:svg="http://www.w3.org/2000/svg"
   xmlns="http://www.w3.org/2000/svg"
   xmlns:xlink="http://www.w3.org/1999/xlink"
   xmlns:sodipodi="http://sodipodi.sourceforge.net/DTD/sodipodi-0.dtd"
   xmlns:inkscape="http://www.inkscape.org/namespaces/inkscape"
   width="793.70081"
   height="1122.5197"
   viewBox="0 0 210 297"
   version="1.1"
   id="svg8"
   inkscape:version="0.92.4 (5da689c313, 2019-01-14)"
   sodipodi:docname="logo.svg">
  <defs
     id="defs2">
    <linearGradient
       inkscape:collect="always"
       id="linearGradient5093">
      <stop
         id="stop5087"
         offset="0"
         style="stop-color:#b1e0a0;stop-opacity:1" />
      <stop
         style="stop-color:#73a88c;stop-opacity:1"
         offset="0.30509922"
         id="stop5089" />
      <stop
         id="stop5091"
         offset="1"
         style="stop-color:#003b26;stop-opacity:1" />
    </linearGradient>
    <linearGradient
       id="linearGradient5083"
       inkscape:collect="always">
      <stop
         style="stop-color:#8ab491;stop-opacity:1"
         offset="0"
         id="stop5079" />
      <stop
         id="stop5085"
         offset="0.68027961"
         style="stop-color:#267260;stop-opacity:1" />
      <stop
         style="stop-color:#003b26;stop-opacity:1"
         offset="1"
         id="stop5081" />
    </linearGradient>
    <linearGradient
       id="linearGradient5075"
       inkscape:collect="always">
      <stop
         style="stop-color:#8ab491;stop-opacity:1"
         offset="0"
         id="stop5071" />
      <stop
         id="stop5077"
         offset="0.47286341"
         style="stop-color:#6f9e77;stop-opacity:1" />
      <stop
         style="stop-color:#003b26;stop-opacity:1"
         offset="1"
         id="stop5073" />
    </linearGradient>
    <linearGradient
       id="linearGradient5067"
       inkscape:collect="always">
      <stop
         style="stop-color:#8ab491;stop-opacity:1"
         offset="0"
         id="stop5063" />
      <stop
         id="stop5069"
         offset="0.23161353"
         style="stop-color:#167560;stop-opacity:1" />
      <stop
         style="stop-color:#003b26;stop-opacity:1"
         offset="1"
         id="stop5065" />
    </linearGradient>
    <linearGradient
       id="linearGradient5059"
       inkscape:collect="always">
      <stop
         style="stop-color:#8ab491;stop-opacity:1"
         offset="0"
         id="stop5055" />
      <stop
         id="stop5061"
         offset="0.30509922"
         style="stop-color:#73a88c;stop-opacity:1" />
      <stop
         style="stop-color:#003b26;stop-opacity:1"
         offset="1"
         id="stop5057" />
    </linearGradient>
    <linearGradient
       id="linearGradient5009"
       inkscape:collect="always">
      <stop
         style="stop-color:#eac50b;stop-opacity:1"
         offset="0"
         id="stop5007" />
      <stop
         style="stop-color:#eb7e0f;stop-opacity:1"
         offset="1"
         id="stop5005" />
    </linearGradient>
    <linearGradient
       inkscape:collect="always"
       id="linearGradient4999">
      <stop
         style="stop-color:#eb7e0f;stop-opacity:1"
         offset="0"
         id="stop4995" />
      <stop
         style="stop-color:#eac50b;stop-opacity:1"
         offset="1"
         id="stop4997" />
    </linearGradient>
    <linearGradient
       inkscape:collect="always"
       id="linearGradient4991">
      <stop
         style="stop-color:#ecd235;stop-opacity:1"
         offset="0"
         id="stop4987" />
      <stop
         style="stop-color:#ffffff;stop-opacity:0"
         offset="1"
         id="stop4989" />
    </linearGradient>
    <linearGradient
       inkscape:collect="always"
       xlink:href="#linearGradient5067"
       id="linearGradient4979"
       x1="765.70898"
       y1="332.20505"
       x2="609.63086"
       y2="204.41013"
       gradientUnits="userSpaceOnUse"
       spreadMethod="pad"
       gradientTransform="matrix(0.26458333,0,0,0.26458333,-3.175,44.45)" />
    <linearGradient
       inkscape:collect="always"
       xlink:href="#linearGradient5093"
       id="linearGradient4993"
       x1="781.62457"
       y1="253.23616"
       x2="834.78967"
       y2="429.03412"
       gradientUnits="userSpaceOnUse"
       gradientTransform="matrix(0.26458333,0,0,0.26458333,-3.175,44.45)" />
    <linearGradient
       inkscape:collect="always"
       xlink:href="#linearGradient5059"
       id="linearGradient5001"
       x1="192.96854"
       y1="118.7929"
       x2="215.32292"
       y2="76.27475"
       gradientUnits="userSpaceOnUse"
       gradientTransform="translate(-3.175,44.45)" />
    <linearGradient
       inkscape:collect="always"
       xlink:href="#linearGradient5075"
       id="linearGradient5019"
       x1="227.67822"
       y1="73.956955"
       x2="247.58257"
       y2="85.334038"
       gradientUnits="userSpaceOnUse"
       gradientTransform="translate(-3.175,44.45)" />
    <linearGradient
       inkscape:collect="always"
       xlink:href="#linearGradient5083"
       id="linearGradient5027"
       x1="223.02649"
       y1="101.0662"
       x2="261.76273"
       y2="101.33078"
       gradientUnits="userSpaceOnUse"
       gradientTransform="translate(-3.175,44.45)" />
    <linearGradient
       inkscape:collect="always"
       xlink:href="#linearGradient5009"
       id="linearGradient5039"
       gradientUnits="userSpaceOnUse"
       x1="765.70898"
       y1="332.20505"
       x2="666.63086"
       y2="259.41013"
       spreadMethod="pad"
       gradientTransform="matrix(0.26458333,0,0,0.26458333,-117.475,41.804166)" />
    <linearGradient
       inkscape:collect="always"
       xlink:href="#linearGradient4991"
       id="linearGradient5041"
       gradientUnits="userSpaceOnUse"
       x1="776.67487"
       y1="324.65396"
       x2="844.216"
       y2="206.28329"
       gradientTransform="matrix(0.26458333,0,0,0.26458333,-117.475,41.804166)" />
    <linearGradient
       inkscape:collect="always"
       xlink:href="#linearGradient4999"
       id="linearGradient5043"
       gradientUnits="userSpaceOnUse"
       x1="192.96854"
       y1="118.7929"
       x2="209.50209"
       y2="90.033081"
       gradientTransform="translate(-117.475,41.804166)" />
    <linearGradient
       inkscape:collect="always"
       xlink:href="#linearGradient4999"
       id="linearGradient5045"
       gradientUnits="userSpaceOnUse"
       x1="223.02649"
       y1="101.0662"
       x2="251.44398"
       y2="101.0662"
       gradientTransform="translate(-117.475,41.804166)" />
    <linearGradient
       inkscape:collect="always"
       xlink:href="#linearGradient4999"
       id="linearGradient5047"
       gradientUnits="userSpaceOnUse"
       x1="227.67822"
       y1="73.956955"
       x2="241.49715"
       y2="81.629868"
       gradientTransform="translate(-117.475,41.804166)" />
  </defs>
  <sodipodi:namedview
     id="base"
     pagecolor="#ffffff"
     bordercolor="#666666"
     borderopacity="1.0"
     inkscape:pageopacity="0.0"
     inkscape:pageshadow="2"
     inkscape:zoom="0.70710678"
     inkscape:cx="365.72117"
     inkscape:cy="622.79206"
     inkscape:document-units="mm"
     inkscape:current-layer="layer2"
     showgrid="false"
     units="px"
     showborder="false"
     inkscape:window-width="1377"
     inkscape:window-height="1008"
     inkscape:window-x="534"
     inkscape:window-y="0"
     inkscape:window-maximized="0"
     inkscape:snap-smooth-nodes="false"
     inkscape:snap-midpoints="false"
     inkscape:snap-intersection-paths="false"
     inkscape:object-paths="false"
     inkscape:snap-others="true"
     inkscape:object-nodes="false" />
  <metadata
     id="metadata5">
    <rdf:RDF>
      <cc:Work
         rdf:about="">
        <dc:format>image/svg+xml</dc:format>
        <dc:type
           rdf:resource="http://purl.org/dc/dcmitype/StillImage" />
        <dc:title />
      </cc:Work>
    </rdf:RDF>
  </metadata>
  <g
     inkscape:groupmode="layer"
     id="layer2"
     inkscape:label="vec"
     style="display:inline">
    <path
       style="opacity:1;vector-effect:none;fill:url(#linearGradient4979);fill-opacity:1;stroke:none;stroke-width:1.28700006;stroke-linecap:butt;stroke-linejoin:miter;stroke-miterlimit:4;stroke-dasharray:none;stroke-dashoffset:0;stroke-opacity:1"
       d="m 218.92772,104.82306 c -0.0388,0.002 -0.0775,0.005 -0.11627,0.007 0.0387,-0.003 0.0775,-0.005 0.11627,-0.007 z m 0.99632,0.006 c 0.047,0.003 0.0941,0.007 0.14108,0.0103 -0.0471,-0.004 -0.094,-0.007 -0.14108,-0.0103 z m -1.5968,0.0496 c -0.0265,0.004 -0.0527,0.008 -0.0791,0.0119 0.0264,-0.004 0.0526,-0.008 0.0791,-0.0119 z m 2.18488,0.008 c 0.0162,0.002 0.0324,0.003 0.0486,0.006 -0.0161,-0.002 -0.0324,-0.004 -0.0486,-0.006 z m -2.71302,0.0847 c -0.0245,0.005 -0.049,0.01 -0.0734,0.0155 0.0244,-0.005 0.0489,-0.0103 0.0734,-0.0155 z m 3.25872,0.004 c 0.0397,0.008 0.0793,0.0161 0.11886,0.0243 -0.0396,-0.008 -0.0791,-0.0166 -0.11886,-0.0243 z m 0.53072,0.11834 c 0.0285,0.007 0.0574,0.0137 0.0858,0.0212 -0.0284,-0.007 -0.0572,-0.014 -0.0858,-0.0212 z m -4.33514,0.0181 c -0.0351,0.0107 -0.0699,0.0223 -0.1049,0.0336 0.0349,-0.0113 0.0698,-0.0229 0.1049,-0.0336 z m 1.15755,0.12144 c -1.44353,0.0176 -2.86835,0.53294 -4.02869,1.82108 -15.39162,19.35828 -32.23602,29.95034 -51.18189,34.87901 -0.0668,-10.75345 -11.75995,-9.42599 -11.5595,-0.80202 0.15555,6.69172 5.54604,8.28528 9.95598,8.28528 10.02261,0 52.78546,-28.3303 64.14441,-39.15471 0.1698,-1.86773 -3.64128,-5.07363 -7.33031,-5.02864 z m 7.33031,5.02864 c 0.0555,-0.0639 0.10478,-0.12873 0.15089,-0.19379 -0.0461,0.0651 -0.0954,0.12987 -0.15089,0.19379 z m -11.359,-3.20756 c 0.071,-0.0901 0.14413,-0.17641 0.21859,-0.26045 -0.0744,0.084 -0.14768,0.17039 -0.21859,0.26045 z m 7.76387,-1.80351 c 0.0347,0.011 0.0689,0.0228 0.10335,0.0341 -0.0345,-0.0113 -0.0686,-0.0231 -0.10335,-0.0341 z m -5.46685,0.0646 c -0.0989,0.041 -0.1962,0.0853 -0.29301,0.13178 0.0968,-0.0465 0.19416,-0.0908 0.29301,-0.13178 z m 5.95106,0.10387 c 0.0329,0.0124 0.0661,0.0245 0.0987,0.0372 -0.0327,-0.0127 -0.0658,-0.0248 -0.0987,-0.0372 z m -6.33915,0.0755 c -0.0611,0.0307 -0.12174,0.0626 -0.1819,0.0956 0.0601,-0.033 0.12082,-0.0649 0.1819,-0.0956 z m 6.87038,0.14262 c 0.03,0.0135 0.0591,0.0276 0.0889,0.0414 -0.0298,-0.0137 -0.0588,-0.0279 -0.0889,-0.0414 z m -7.17837,0.0243 c -0.053,0.0308 -0.10542,0.0629 -0.15762,0.0956 0.0522,-0.0327 0.10459,-0.0648 0.15762,-0.0956 z m -0.27441,0.1695 c -0.0882,0.0583 -0.17588,0.11855 -0.26148,0.18242 0.0856,-0.0639 0.17323,-0.1241 0.26148,-0.18242 z m -0.26148,0.18242 c -0.086,0.0642 -0.17006,0.13213 -0.25321,0.20205 0.0832,-0.07 0.1671,-0.1378 0.25321,-0.20205 z m 8.15713,-0.16175 c 0.0302,0.0156 0.0606,0.0311 0.0904,0.047 -0.0299,-0.0159 -0.0602,-0.0314 -0.0904,-0.047 z m 0.4811,0.26769 c 0.021,0.0127 0.0407,0.0264 0.0615,0.0393 -0.0208,-0.0129 -0.0404,-0.0265 -0.0615,-0.0393 z m -8.98705,0.17983 c -0.0544,0.0479 -0.10822,0.0968 -0.16122,0.14728 0.053,-0.0504 0.10688,-0.0994 0.16122,-0.14728 z m 9.36016,0.0631 c 0.0314,0.0217 0.0627,0.0436 0.0935,0.0656 -0.0308,-0.022 -0.062,-0.0439 -0.0935,-0.0656 z m -9.61182,0.17208 c -0.0508,0.0505 -0.10048,0.10251 -0.14986,0.15555 0.0493,-0.053 0.0992,-0.10508 0.14986,-0.15555 z m 10.33942,0.41135 c 0.0257,0.0241 0.0506,0.0485 0.0754,0.0729 -0.0249,-0.0244 -0.0498,-0.0487 -0.0754,-0.0729 z m 0.31161,0.32039 c 0.01,0.0108 0.0201,0.0213 0.0295,0.032 -0.009,-0.0108 -0.0199,-0.0213 -0.0295,-0.032 z m 0.2527,0.31729 c 0.0164,0.0229 0.0319,0.0458 0.0475,0.0687 -0.0157,-0.023 -0.0311,-0.0458 -0.0475,-0.0687 z m 0.19999,0.31523 c 0.0105,0.019 0.0225,0.0378 0.0326,0.0568 -0.0101,-0.0191 -0.022,-0.0378 -0.0326,-0.0568 z m 0.16536,0.34985 c 0.0243,0.0639 0.0475,0.12806 0.0656,0.19224 -0.0182,-0.0643 -0.0413,-0.12827 -0.0656,-0.19224 z m 0.0656,0.19224 c 0.0195,0.0689 0.0338,0.13767 0.046,0.2067 -0.0122,-0.069 -0.0265,-0.13792 -0.046,-0.2067 z m 0.0553,0.26561 c 0.008,0.0532 0.0128,0.10648 0.016,0.15968 -0.003,-0.0532 -0.008,-0.10644 -0.016,-0.15968 z m 0.0196,0.21549 c 0.002,0.0692 2.6e-4,0.13877 -0.006,0.20774 0.006,-0.0691 0.008,-0.1384 0.006,-0.20774 z m -0.009,0.23823 c -0.006,0.058 -0.0155,0.11545 -0.0274,0.17312 0.0118,-0.0575 0.0213,-0.1153 0.0274,-0.17312 z m -0.0419,0.2372 c -0.0139,0.0567 -0.0308,0.1132 -0.0506,0.1695 0.0199,-0.0564 0.0367,-0.1127 0.0506,-0.1695 z m -0.0625,0.20515 c -0.0258,0.0686 -0.0561,0.13688 -0.091,0.20464 0.0349,-0.0678 0.0652,-0.13604 0.091,-0.20464 z m -0.11627,0.2496 c -0.0281,0.0514 -0.059,0.10266 -0.0925,0.15348 0.0336,-0.0508 0.0644,-0.10207 0.0925,-0.15348 z"
       id="path4529"
       inkscape:connector-curvature="0" />
    <path
       style="opacity:1;vector-effect:none;fill:url(#linearGradient4993);fill-opacity:1;stroke:none;stroke-width:1.28700006;stroke-linecap:butt;stroke-linejoin:miter;stroke-miterlimit:4;stroke-dasharray:none;stroke-dashoffset:0;stroke-opacity:1"
       d="m 218.41095,105.23337 c -1.44352,0.0177 -2.86835,0.53293 -4.02869,1.82108 2.03793,-1.36976 5.13962,0.0249 0.87023,3.62148 -8.80403,7.41673 -13.54817,13.12997 -16.6827,17.78444 -3.84266,5.70599 -7.23226,13.13503 -3.21014,12.00806 3.96457,-1.42516 5.84291,-2.26397 9.82472,-2.27583 2.39003,-12.64321 20.32066,-25.33201 20.55689,-27.9306 0.1698,-1.86773 -3.64129,-5.07372 -7.33031,-5.02863 z m -22.9526,37.41942 c -2.24138,2.25503 -6.60451,5.74617 -10.67583,8.91005 4.20514,-3.26787 8.55933,-6.71797 10.67583,-8.91005 z"
       id="path4586"
       inkscape:connector-curvature="0" />
    <path
       sodipodi:nodetypes="ccccsc"
       inkscape:connector-curvature="0"
       id="path4683"
       d="m 205.18437,138.19248 c -3.98181,0.0119 -5.86003,0.85093 -9.8246,2.27608 4.68951,-0.97331 -4.78284,6.54789 -12.18081,12.29696 0.96926,3.18848 3.25808,5.64868 6.37025,8.01637 5.24442,-5.10268 15.39445,-16.54658 16.95611,-18.2399 1.794,-1.94524 1.54728,-4.48536 -1.32095,-4.34951 z"
       style="opacity:1;vector-effect:none;fill:url(#linearGradient5001);fill-opacity:1;stroke:none;stroke-width:1.28700006;stroke-linecap:butt;stroke-linejoin:miter;stroke-miterlimit:4;stroke-dasharray:none;stroke-dashoffset:0;stroke-opacity:1" />
    <path
       sodipodi:nodetypes="cczcc"
       inkscape:connector-curvature="0"
       id="path4694"
       d="m 248.26891,144.33541 c 0.01,4.59418 -1.05484,6.8947 -2.78782,9.11056 -7.30801,0.42254 -21.63495,-1.63943 -24.11011,-5.08575 -2.47516,-3.44632 -1.56366,-9.00937 0.16086,-10.82838 -3.77976,4.34672 10.92643,8.98766 26.73707,6.80357 z"
       style="opacity:1;vector-effect:none;fill:url(#linearGradient5027);fill-opacity:1;stroke:none;stroke-width:1.28700006;stroke-linecap:butt;stroke-linejoin:miter;stroke-miterlimit:4;stroke-dasharray:none;stroke-dashoffset:0;stroke-opacity:1" />
    <path
       inkscape:connector-curvature="0"
       style="opacity:1;vector-effect:none;fill:url(#linearGradient5019);fill-opacity:1;stroke:none;stroke-width:1.28700006;stroke-linecap:butt;stroke-linejoin:miter;stroke-miterlimit:4;stroke-dasharray:none;stroke-dashoffset:0;stroke-opacity:1"
       d="m 243.08597,107.95605 c -2.61048,0.0254 -6.25456,0.66754 -6.54689,2.17093 -1.5119,12.09523 -11.22863,23.05935 -15.00838,27.40608 -2.02411,2.32772 1.2563,4.7391 7.16545,6.14226 -3.10697,-2.46956 3.40129,-8.87215 5.85648,-12.70466 2.73952,-4.27631 5.55361,-8.41312 11.16883,-22.4472 0.12529,-0.37585 -1.06921,-0.58268 -2.63549,-0.56741 z"
       id="path4692-8"
       sodipodi:nodetypes="scccccs" />
    <path
       inkscape:connector-curvature="0"
       id="path4950"
       d="m -4.9097794,101.64806 c -0.03882,0.002 -0.077507,0.005 -0.1162711,0.007 0.038706,-0.003 0.077507,-0.005 0.1162711,-0.007 z m 0.9963203,0.006 c 0.047027,0.003 0.094118,0.007 0.1410785,0.0103 -0.047051,-0.004 -0.093961,-0.007 -0.1410785,-0.0103 z m -1.5968001,0.0496 c -0.026458,0.004 -0.052665,0.008 -0.079065,0.0119 0.026379,-0.004 0.052644,-0.008 0.079065,-0.0119 z m 2.1848789,0.008 c 0.016166,0.002 0.032427,0.003 0.048575,0.006 -0.01614,-0.002 -0.032411,-0.004 -0.048575,-0.006 z m -2.7130137,0.0848 c -0.024474,0.005 -0.04898,0.01 -0.073379,0.0155 0.024368,-0.005 0.048945,-0.0103 0.073379,-0.0155 z m 3.2587168,0.004 c 0.039746,0.008 0.079269,0.0161 0.1188561,0.0243 -0.039642,-0.008 -0.079055,-0.0166 -0.1188561,-0.0243 z m 0.5307171,0.11834 c 0.028541,0.007 0.057356,0.0137 0.085783,0.0212 -0.028453,-0.007 -0.057219,-0.014 -0.085783,-0.0212 z m -4.335137,0.0181 c -0.03515,0.0107 -0.069937,0.0223 -0.104902,0.0336 0.034936,-0.0113 0.069781,-0.0229 0.104902,-0.0336 z m 1.1575521,0.12144 c -1.4435296,0.0176 -2.8683585,0.53294 -4.028694,1.82108 -15.391619,19.35828 -32.236018,29.95034 -51.181888,34.87901 -0.0668,-10.75345 -11.759951,-9.42599 -11.5595,-0.80202 0.155548,6.69172 5.546042,8.28528 9.955982,8.28528 10.02261,0 52.7854536,-28.3303 64.1444023,-39.15471 0.169799,-1.86773 -3.6412752,-5.07363 -7.3303023,-5.02864 z m 7.3303023,5.02864 c 0.05547,-0.0639 0.1047829,-0.12873 0.1508945,-0.19379 -0.046125,0.0651 -0.095409,0.12987 -0.1508945,0.19379 z M -9.455239,103.87944 c 0.070951,-0.0901 0.1441344,-0.17641 0.2185908,-0.26045 -0.074409,0.084 -0.1476824,0.17039 -0.2185908,0.26045 z m 7.7638671,-1.80351 c 0.034716,0.011 0.068863,0.0228 0.1033542,0.0341 -0.034504,-0.0113 -0.068622,-0.0231 -0.1033542,-0.0341 z m -5.4668499,0.0646 c -0.098864,0.041 -0.1962017,0.0853 -0.2930048,0.13178 0.096782,-0.0465 0.1941618,-0.0908 0.2930048,-0.13178 z m 5.9510586,0.10387 c 0.032896,0.0124 0.066066,0.0245 0.098703,0.0372 -0.03266,-0.0127 -0.065783,-0.0248 -0.098703,-0.0372 z m -6.3391467,0.0755 c -0.0611,0.0307 -0.1217375,0.0626 -0.1819011,0.0956 0.06014,-0.033 0.120822,-0.0649 0.1819011,-0.0956 z m 6.87037973,0.14262 c 0.0300329,0.0135 0.0591344,0.0276 0.0888841,0.0414 -0.029755,-0.0137 -0.058846,-0.0279 -0.0888841,-0.0414 z m -7.17837333,0.0243 c -0.053012,0.0308 -0.1054152,0.0629 -0.1576122,0.0956 0.052205,-0.0327 0.1045897,-0.0648 0.1576122,-0.0956 z m -0.274402,0.1695 c -0.088233,0.0583 -0.1758844,0.11855 -0.2614824,0.18242 0.085614,-0.0639 0.1732333,-0.1241 0.2614824,-0.18242 z m -0.2614824,0.18242 c -0.086013,0.0642 -0.1700636,0.13213 -0.2532142,0.20205 0.083238,-0.07 0.1671056,-0.1378 0.2532142,-0.20205 z m 8.15712525,-0.16175 c 0.0302022,0.0156 0.0605896,0.0311 0.0904346,0.047 -0.0298953,-0.0159 -0.0601795,-0.0314 -0.0904346,-0.047 z m 0.48110774,0.26769 c 0.0210344,0.0127 0.0406797,0.0264 0.0614945,0.0393 -0.0208227,-0.0129 -0.0404442,-0.0265 -0.0614945,-0.0393 z m -8.98704909,0.17983 c -0.054372,0.0479 -0.1082251,0.0968 -0.1612291,0.14728 0.05298,-0.0504 0.1068837,-0.0994 0.1612291,-0.14728 z m 9.36015392,0.0631 c 0.0314457,0.0217 0.0627327,0.0436 0.0935329,0.0656 -0.0308531,-0.022 -0.0620316,-0.0439 -0.0935329,-0.0656 z m -9.61181762,0.17208 c -0.050758,0.0505 -0.1004834,0.10251 -0.1498626,0.15555 0.049316,-0.053 0.099171,-0.10508 0.1498626,-0.15555 z m 10.3394218,0.41135 c 0.025665,0.0241 0.050578,0.0485 0.075446,0.0729 -0.024871,-0.0244 -0.049784,-0.0487 -0.075446,-0.0729 z m 0.3116077,0.32039 c 0.0095,0.0108 0.020135,0.0213 0.029456,0.032 -0.00934,-0.0108 -0.01995,-0.0213 -0.029456,-0.032 z m 0.2526982,0.31729 c 0.016378,0.0229 0.031898,0.0457 0.047543,0.0687 -0.015663,-0.023 -0.031141,-0.0458 -0.047543,-0.0687 z m 0.199988,0.31523 c 0.010557,0.019 0.022516,0.0378 0.032557,0.0568 -0.010054,-0.0191 -0.021987,-0.0378 -0.032557,-0.0568 z m 0.1653646,0.34985 c 0.024315,0.0639 0.047456,0.12806 0.06563,0.19224 -0.018203,-0.0643 -0.041275,-0.12827 -0.06563,-0.19224 z m 0.06563,0.19224 c 0.0195,0.0689 0.033824,0.13767 0.04599,0.2067 -0.012171,-0.069 -0.026511,-0.13792 -0.04599,-0.2067 z m 0.055293,0.26561 c 0.00773,0.0532 0.012832,0.10648 0.016034,0.15968 -0.0032,-0.0532 -0.00828,-0.10644 -0.016034,-0.15968 z m 0.019632,0.21549 c 0.00212,0.0692 2.646e-4,0.13877 -0.00569,0.20774 0.00598,-0.0691 0.00773,-0.1384 0.00569,-0.20774 z m -0.00931,0.23823 c -0.00603,0.058 -0.015478,0.11545 -0.027387,0.17312 0.011853,-0.0575 0.021352,-0.1153 0.027387,-0.17312 z m -0.041857,0.2372 c -0.013917,0.0567 -0.030803,0.1132 -0.050644,0.1695 0.01987,-0.0564 0.036711,-0.1127 0.050644,-0.1695 z m -0.062529,0.20515 c -0.02577,0.0686 -0.056078,0.13688 -0.090951,0.20464 0.034883,-0.0678 0.065188,-0.13604 0.090951,-0.20464 z m -0.1162712,0.2496 c -0.028104,0.0514 -0.058944,0.10266 -0.092501,0.15348 0.033568,-0.0508 0.064392,-0.10207 0.092501,-0.15348 z"
       style="opacity:1;vector-effect:none;fill:#5b7e4e;fill-opacity:1;stroke:none;stroke-width:1.28700006;stroke-linecap:butt;stroke-linejoin:miter;stroke-miterlimit:4;stroke-dasharray:none;stroke-dashoffset:0;stroke-opacity:1" />
    <path
       inkscape:connector-curvature="0"
       id="path4952"
       d="m -5.426545,102.05837 c -1.443527,0.0177 -2.8683585,0.53293 -4.028694,1.82108 2.0379293,-1.36976 5.1396212,0.0249 0.8702305,3.62148 -8.8040285,7.41673 -13.5481725,13.12997 -16.6827015,17.78444 -3.84266,5.70599 -7.232261,13.13503 -3.210139,12.00806 3.964569,-1.42516 5.842913,-2.26397 9.824722,-2.27583 2.390029,-12.64321 20.3206537,-25.33201 20.5568843,-27.9306 0.169799,-1.86773 -3.6412857,-5.07372 -7.3303023,-5.02863 z m -22.952604,37.41942 c -2.241375,2.25503 -6.604513,5.74617 -10.675834,8.91005 4.205139,-3.26787 8.559337,-6.71797 10.675834,-8.91005 z"
       style="opacity:1;vector-effect:none;fill:#446337;fill-opacity:1;stroke:none;stroke-width:1.28700006;stroke-linecap:butt;stroke-linejoin:miter;stroke-miterlimit:4;stroke-dasharray:none;stroke-dashoffset:0;stroke-opacity:1" />
    <path
       style="opacity:1;vector-effect:none;fill:#5b7e4e;fill-opacity:1;stroke:none;stroke-width:1.28700006;stroke-linecap:butt;stroke-linejoin:miter;stroke-miterlimit:4;stroke-dasharray:none;stroke-dashoffset:0;stroke-opacity:1"
       d="m -18.653129,135.01748 c -3.98181,0.0119 -5.86003,0.85093 -9.8246,2.27608 4.68951,-0.97331 -4.78284,6.54789 -12.18081,12.29696 0.96926,3.18848 3.25808,5.64868 6.37025,8.01637 5.24442,-5.10268 15.39445,-16.54658 16.95611,-18.2399 1.794,-1.94524 1.54728,-4.48536 -1.32095,-4.34951 z"
       id="path4954"
       inkscape:connector-curvature="0"
       sodipodi:nodetypes="ccccsc" />
    <path
       style="opacity:1;vector-effect:none;fill:#5b7e4e;fill-opacity:1;stroke:none;stroke-width:1.28700006;stroke-linecap:butt;stroke-linejoin:miter;stroke-miterlimit:4;stroke-dasharray:none;stroke-dashoffset:0;stroke-opacity:1"
       d="m 24.431411,141.16041 c 0.01,4.59418 -1.05484,6.8947 -2.78782,9.11056 -7.30801,0.42254 -21.63494992,-1.63943 -24.1101099,-5.08575 -2.47516,-3.44632 -1.56366,-9.00937 0.16086,-10.82838 -3.77976,4.34672 10.92643,8.98766 26.7370699,6.80357 z"
       id="path4956"
       inkscape:connector-curvature="0"
       sodipodi:nodetypes="cczcc" />
    <path
       sodipodi:nodetypes="scccccs"
       id="path4958"
       d="m 19.248471,104.78105 c -2.61048,0.0255 -6.25456,0.66754 -6.54689,2.17093 -1.5119,12.09523 -11.2286299,23.05935 -15.0083799,27.40608 -2.02411,2.32772 1.2563,4.7391 7.16545,6.14226 -3.10697,-2.46956 3.40129,-8.87215 5.8564799,-12.70466 2.73952,-4.27631 5.55361,-8.41312 11.16883,-22.4472 0.12529,-0.37585 -1.06921,-0.58268 -2.63549,-0.56741 z"
       style="opacity:1;vector-effect:none;fill:#446337;fill-opacity:1;stroke:none;stroke-width:1.28700006;stroke-linecap:butt;stroke-linejoin:miter;stroke-miterlimit:4;stroke-dasharray:none;stroke-dashoffset:0;stroke-opacity:1"
       inkscape:connector-curvature="0" />
    <path
       inkscape:connector-curvature="0"
       id="path5029"
       d="m 104.62772,102.17722 c -0.0388,0.002 -0.0775,0.005 -0.11627,0.007 0.0387,-0.003 0.0775,-0.005 0.11627,-0.007 z m 0.99632,0.006 c 0.047,0.003 0.0941,0.007 0.14108,0.0103 -0.047,-0.004 -0.094,-0.007 -0.14108,-0.0103 z m -1.5968,0.0496 c -0.0265,0.004 -0.0527,0.008 -0.0791,0.0119 0.0264,-0.004 0.0526,-0.008 0.0791,-0.0119 z m 2.18488,0.008 c 0.0162,0.002 0.0324,0.003 0.0486,0.006 -0.0161,-0.002 -0.0324,-0.004 -0.0486,-0.006 z m -2.71301,0.0847 c -0.0245,0.005 -0.049,0.01 -0.0734,0.0155 0.0244,-0.005 0.0489,-0.0103 0.0734,-0.0155 z m 3.25871,0.004 c 0.0397,0.008 0.0793,0.0161 0.11886,0.0243 -0.0396,-0.008 -0.0791,-0.0166 -0.11886,-0.0243 z m 0.53072,0.11834 c 0.0285,0.007 0.0574,0.0137 0.0858,0.0212 -0.0284,-0.007 -0.0572,-0.014 -0.0858,-0.0212 z m -4.33514,0.0181 c -0.0352,0.0107 -0.0699,0.0223 -0.1049,0.0336 0.0349,-0.0113 0.0698,-0.0229 0.1049,-0.0336 z m 1.15755,0.12144 c -1.44353,0.0176 -2.86835,0.53293 -4.02869,1.82108 -15.391619,19.35828 -32.236018,29.95034 -51.181888,34.87901 -0.0668,-10.75346 -11.759951,-9.42599 -11.5595,-0.80202 0.155549,6.69172 5.546042,8.28528 9.955982,8.28528 10.02261,0 52.785456,-28.3303 64.144406,-39.15472 0.1698,-1.86773 -3.64128,-5.07363 -7.33031,-5.02863 z m 7.33031,5.02863 c 0.0555,-0.0639 0.10478,-0.12872 0.15089,-0.19378 -0.0461,0.0651 -0.0954,0.12987 -0.15089,0.19378 z m -11.359,-3.20755 c 0.0709,-0.0901 0.14413,-0.17641 0.21859,-0.26045 -0.0744,0.084 -0.14768,0.17039 -0.21859,0.26045 z m 7.76387,-1.80351 c 0.0347,0.011 0.0689,0.0228 0.10335,0.0341 -0.0345,-0.0114 -0.0686,-0.0231 -0.10335,-0.0341 z m -5.46685,0.0646 c -0.0989,0.041 -0.1962,0.0853 -0.29301,0.13177 0.0968,-0.0464 0.19416,-0.0908 0.29301,-0.13177 z m 5.95106,0.10387 c 0.0329,0.0124 0.0661,0.0245 0.0987,0.0372 -0.0327,-0.0127 -0.0658,-0.0248 -0.0987,-0.0372 z m -6.33915,0.0754 c -0.0611,0.0307 -0.12174,0.0626 -0.1819,0.0956 0.0601,-0.0329 0.12082,-0.0649 0.1819,-0.0956 z m 6.87038,0.14263 c 0.03,0.0135 0.0591,0.0276 0.0889,0.0413 -0.0298,-0.0137 -0.0588,-0.0279 -0.0889,-0.0413 z m -7.17837,0.0243 c -0.053,0.0308 -0.10542,0.0629 -0.15762,0.0956 0.0522,-0.0327 0.10459,-0.0648 0.15762,-0.0956 z m -0.27441,0.1695 c -0.0882,0.0583 -0.17588,0.11854 -0.26148,0.18242 0.0856,-0.0639 0.17323,-0.1241 0.26148,-0.18242 z m -0.26148,0.18242 c -0.086,0.0642 -0.17006,0.13213 -0.25321,0.20205 0.0832,-0.07 0.1671,-0.13781 0.25321,-0.20205 z m 8.15713,-0.16175 c 0.0302,0.0156 0.0606,0.0311 0.0904,0.047 -0.0299,-0.0159 -0.0602,-0.0314 -0.0904,-0.047 z m 0.4811,0.26768 c 0.021,0.0127 0.0407,0.0264 0.0615,0.0393 -0.0208,-0.0129 -0.0405,-0.0265 -0.0615,-0.0393 z m -8.98704,0.17984 c -0.0544,0.0479 -0.10823,0.0968 -0.16123,0.14728 0.053,-0.0504 0.10688,-0.0994 0.16123,-0.14728 z m 9.36015,0.063 c 0.0315,0.0217 0.0627,0.0436 0.0935,0.0656 -0.0309,-0.022 -0.062,-0.0439 -0.0935,-0.0656 z m -9.61182,0.17208 c -0.0508,0.0505 -0.10048,0.1025 -0.14986,0.15554 0.0493,-0.053 0.0992,-0.10507 0.14986,-0.15554 z m 10.33942,0.41134 c 0.0257,0.0242 0.0506,0.0485 0.0754,0.0729 -0.0249,-0.0244 -0.0498,-0.0487 -0.0754,-0.0729 z m 0.31161,0.3204 c 0.009,0.0108 0.0201,0.0212 0.0295,0.032 -0.009,-0.0108 -0.02,-0.0213 -0.0295,-0.032 z m 0.2527,0.31729 c 0.0164,0.0229 0.0319,0.0457 0.0475,0.0687 -0.0157,-0.023 -0.0311,-0.0458 -0.0475,-0.0687 z m 0.19999,0.31523 c 0.0106,0.019 0.0225,0.0378 0.0326,0.0568 -0.01,-0.019 -0.022,-0.0378 -0.0326,-0.0568 z m 0.16536,0.34985 c 0.0243,0.0639 0.0475,0.12805 0.0656,0.19223 -0.0182,-0.0643 -0.0413,-0.12827 -0.0656,-0.19223 z m 0.0656,0.19223 c 0.0195,0.0689 0.0338,0.13768 0.046,0.20671 -0.0122,-0.069 -0.0265,-0.13792 -0.046,-0.20671 z m 0.0553,0.26562 c 0.008,0.0532 0.0128,0.10648 0.016,0.15968 -0.003,-0.0532 -0.008,-0.10645 -0.016,-0.15968 z m 0.0196,0.21549 c 0.002,0.0692 2.6e-4,0.13877 -0.006,0.20774 0.006,-0.0691 0.008,-0.1384 0.006,-0.20774 z m -0.009,0.23823 c -0.006,0.058 -0.0155,0.11544 -0.0274,0.17311 0.0118,-0.0575 0.0213,-0.11529 0.0274,-0.17311 z m -0.0418,0.23719 c -0.0139,0.0567 -0.0308,0.11321 -0.0506,0.1695 0.0199,-0.0564 0.0367,-0.11269 0.0506,-0.1695 z m -0.0625,0.20516 c -0.0258,0.0686 -0.0561,0.13687 -0.091,0.20464 0.0349,-0.0678 0.0652,-0.13605 0.091,-0.20464 z m -0.11627,0.24959 c -0.0281,0.0514 -0.0589,0.10267 -0.0925,0.15348 0.0336,-0.0508 0.0644,-0.10206 0.0925,-0.15348 z"
       style="opacity:1;vector-effect:none;fill:url(#linearGradient5039);fill-opacity:1;stroke:none;stroke-width:1.28700006;stroke-linecap:butt;stroke-linejoin:miter;stroke-miterlimit:4;stroke-dasharray:none;stroke-dashoffset:0;stroke-opacity:1"
       inkscape:export-xdpi="262.8111"
       inkscape:export-ydpi="262.8111" />
    <path
       inkscape:connector-curvature="0"
       id="path5031"
       d="m 104.11095,102.58754 c -1.44352,0.0176 -2.86835,0.53293 -4.02869,1.82107 2.03793,-1.36975 5.13962,0.0249 0.87023,3.62149 -8.804028,7.41672 -13.548171,13.12997 -16.6827,17.78444 -3.84266,5.70598 -7.232261,13.13503 -3.21014,12.00805 3.96457,-1.42515 5.842913,-2.26397 9.824723,-2.27583 2.390029,-12.6432 20.320657,-25.332 20.556887,-27.93059 0.1698,-1.86773 -3.64129,-5.07373 -7.33031,-5.02863 z m -22.952599,37.41942 c -2.241376,2.25503 -6.604514,5.74617 -10.675835,8.91005 4.20514,-3.26788 8.559337,-6.71798 10.675835,-8.91005 z"
       style="opacity:1;vector-effect:none;fill:url(#linearGradient5041);fill-opacity:1;stroke:none;stroke-width:1.28700006;stroke-linecap:butt;stroke-linejoin:miter;stroke-miterlimit:4;stroke-dasharray:none;stroke-dashoffset:0;stroke-opacity:1"
       inkscape:export-xdpi="262.8111"
       inkscape:export-ydpi="262.8111" />
    <path
       style="opacity:1;vector-effect:none;fill:url(#linearGradient5043);fill-opacity:1;stroke:none;stroke-width:1.28700006;stroke-linecap:butt;stroke-linejoin:miter;stroke-miterlimit:4;stroke-dasharray:none;stroke-dashoffset:0;stroke-opacity:1"
       d="m 90.884371,135.54664 c -3.98181,0.0119 -5.86003,0.85094 -9.8246,2.27609 4.68951,-0.97331 -4.78284,6.54789 -12.18081,12.29696 0.96926,3.18848 3.25808,5.64868 6.37025,8.01637 5.24442,-5.10268 15.39445,-16.54659 16.95611,-18.23991 1.794,-1.94523 1.54728,-4.48535 -1.32095,-4.34951 z"
       id="path5033"
       inkscape:connector-curvature="0"
       sodipodi:nodetypes="ccccsc"
       inkscape:export-xdpi="262.8111"
       inkscape:export-ydpi="262.8111" />
    <path
       style="opacity:1;vector-effect:none;fill:url(#linearGradient5045);fill-opacity:1;stroke:none;stroke-width:1.28700006;stroke-linecap:butt;stroke-linejoin:miter;stroke-miterlimit:4;stroke-dasharray:none;stroke-dashoffset:0;stroke-opacity:1"
       d="m 133.96891,141.68957 c 0.01,4.59419 -1.05484,6.89471 -2.78782,9.11057 -7.30801,0.42254 -21.63495,-1.63943 -24.11011,-5.08575 -2.47516,-3.44632 -1.56366,-9.00938 0.16086,-10.82839 -3.77976,4.34673 10.92643,8.98767 26.73707,6.80357 z"
       id="path5035"
       inkscape:connector-curvature="0"
       sodipodi:nodetypes="cczcc"
       inkscape:export-xdpi="262.8111"
       inkscape:export-ydpi="262.8111" />
    <path
       sodipodi:nodetypes="scccccs"
       id="path5037"
       d="m 128.78597,105.31022 c -2.61048,0.0254 -6.25456,0.66753 -6.54689,2.17092 -1.5119,12.09524 -11.22863,23.05935 -15.00838,27.40608 -2.02411,2.32772 1.2563,4.7391 7.16545,6.14226 -3.10697,-2.46956 3.40129,-8.87214 5.85648,-12.70465 2.73952,-4.27631 5.55361,-8.41312 11.16883,-22.44721 0.12529,-0.37584 -1.06921,-0.58267 -2.63549,-0.5674 z"
       style="opacity:1;vector-effect:none;fill:url(#linearGradient5047);fill-opacity:1;stroke:none;stroke-width:1.28700006;stroke-linecap:butt;stroke-linejoin:miter;stroke-miterlimit:4;stroke-dasharray:none;stroke-dashoffset:0;stroke-opacity:1"
       inkscape:connector-curvature="0"
       inkscape:export-xdpi="262.8111"
       inkscape:export-ydpi="262.8111" />
  </g>
</svg>
